<svg width="200" height="150" viewBox="0 0 200 150" xmlns="http://www.w3.org/2000/svg">
  <!-- Klepeta -->
  <circle cx="40" cy="50" r="15" fill="#E74C3C" />
  <circle cx="160" cy="50" r="15" fill="#E74C3C" />
  
  <!-- Nohy klepet -->
  <path d="M50 60 L70 80" stroke="#C0392B" stroke-width="8" stroke-linecap="round"/>
  <path d="M150 60 L130 80" stroke="#C0392B" stroke-width="8" stroke-linecap="round"/>

  <!-- Nožičky -->
  <path d="M60 100 L40 120" stroke="#E74C3C" stroke-width="6" stroke-linecap="round"/>
  <path d="M70 110 L55 130" stroke="#E74C3C" stroke-width="6" stroke-linecap="round"/>
  <path d="M140 100 L160 120" stroke="#E74C3C" stroke-width="6" stroke-linecap="round"/>
  <path d="M130 110 L145 130" stroke="#E74C3C" stroke-width="6" stroke-linecap="round"/>

  <!-- Tělo -->
  <ellipse cx="100" cy="95" rx="50" ry="35" fill="#E74C3C" />

  <!-- Oči (stopky) -->
  <line x1="85" y1="65" x2="85" y2="50" stroke="#C0392B" stroke-width="4" />
  <line x1="115" y1="65" x2="115" y2="50" stroke="#C0392B" stroke-width="4" />
  <circle cx="85" cy="45" r="6" fill="white" />
  <circle cx="115" cy="45" r="6" fill="white" />
  <circle cx="85" cy="45" r="3" fill="black" />
  <circle cx="115" cy="45" r="3" fill="black" />

  <!-- Úsměv -->
  <path d="M90 105 Q100 112 110 105" stroke="white" stroke-width="2" fill="none" stroke-linecap="round"/>
</svg>
